<svg xmlns="http://www.w3.org/2000/svg" version="1.1" xmlns:xlink="http://www.w3.org/1999/xlink" xmlns:svgjs="http://svgjs.dev/svgjs" width="1000" height="1000" viewBox="0 0 1000 1000"><rect width="1000" height="1000" fill="#0c1d36"></rect><g transform="matrix(0.7,0,0,0.7,149.57575763676982,282.1283242914981)"><svg viewBox="0 0 396 247" data-background-color="#0c1d36" preserveAspectRatio="xMidYMid meet" height="623" width="1000" xmlns="http://www.w3.org/2000/svg" xmlns:xlink="http://www.w3.org/1999/xlink"><g id="tight-bounds" transform="matrix(1,0,0,1,0.2400000345155604,-0.09999999999999432)"><svg viewBox="0 0 395.52 247.2" height="247.2" width="395.52"><g><svg></svg></g><g><svg viewBox="0 0 395.52 247.2" height="247.2" width="395.52"><g><g><path xmlns="http://www.w3.org/2000/svg" d="M311.264 202.364v44.837h-204.484c-3.201 0-6.167-0.565-8.896-1.695-2.777-1.177-5.178-2.777-7.202-4.801-2.024-1.977-3.601-4.354-4.731-7.132-1.13-2.73-1.695-5.719-1.695-8.967v-69.143l44.766 0v46.901zM84.256-0.001h44.766l0 91.738-44.766 0z" fill="#090755" fill-rule="nonzero" stroke="none" stroke-width="1" stroke-linecap="butt" stroke-linejoin="miter" stroke-miterlimit="10" stroke-dasharray="" stroke-dashoffset="0" font-family="none" font-weight="none" font-size="none" text-anchor="none" style="mix-blend-mode: normal" data-fill-palette-color="tertiary"></path></g></g><g transform="matrix(1,0,0,1,0,98.93521965748324)"><svg viewBox="0 0 395.52 49.3295606850335" height="49.3295606850335" width="395.52"><g><svg viewBox="0 0 395.52 49.3295606850335" height="49.3295606850335" width="395.52"><g><svg viewBox="0 0 395.52 49.3295606850335" height="49.3295606850335" width="395.52"><g id="textblocktransform"><svg viewBox="0 0 395.52 49.3295606850335" height="49.3295606850335" width="395.52" id="textblock"><g><svg viewBox="0 0 395.52 49.3295606850335" height="49.3295606850335" width="395.52"><g transform="matrix(1,0,0,1,0,0)"><svg width="395.52" viewBox="3.690000057220459 -35.5 327.8500061035156 40.900001525878906" height="49.3295606850335" data-palette-color="#9e9fac"><path d="M35.84-6.35L35.84 0 6.88 0Q6.2 0 5.62-0.24 5.03-0.49 4.6-0.92 4.17-1.34 3.93-1.93 3.69-2.51 3.69-3.2L3.69-3.2 3.69-35.01 10.03-35.01 10.03-6.35 35.84-6.35ZM68.19-17.65L68.19-17.65Q68.19-16.33 67.72-14.81 67.26-13.28 66.22-11.98 65.18-10.67 63.51-9.79 61.84-8.91 59.45-8.91L59.45-8.91 48-8.91 48-14.94 59.45-14.94Q60.74-14.94 61.45-15.73 62.16-16.53 62.16-17.7L62.16-17.7Q62.16-18.95 61.36-19.65 60.57-20.36 59.45-20.36L59.45-20.36 48-20.36Q46.7-20.36 45.99-19.57 45.29-18.77 45.29-17.6L45.29-17.6 45.29-8.74Q45.29-7.47 46.08-6.76 46.87-6.05 48.04-6.05L48.04-6.05 59.45-6.05 59.45 0 48 0Q46.68 0 45.15-0.46 43.63-0.93 42.32-1.97 41.01-3 40.13-4.68 39.26-6.35 39.26-8.74L39.26-8.74 39.26-17.65Q39.26-18.97 39.72-20.5 40.18-22.02 41.22-23.33 42.26-24.63 43.93-25.51 45.6-26.39 48-26.39L48-26.39 59.45-26.39Q60.76-26.39 62.29-25.93 63.82-25.46 65.12-24.43 66.43-23.39 67.31-21.72 68.19-20.04 68.19-17.65ZM99.51-17.65L99.51-8.74Q99.51-7.42 99.04-5.9 98.58-4.37 97.54-3.06 96.5-1.76 94.83-0.88 93.16 0 90.77 0L90.77 0 79.32 0Q78 0 76.47-0.46 74.95-0.93 73.64-1.97 72.33-3 71.45-4.68 70.58-6.35 70.58-8.74L70.58-8.74Q70.58-10.06 71.04-11.6 71.5-13.13 72.54-14.44 73.58-15.75 75.25-16.63 76.92-17.5 79.32-17.5L79.32-17.5 90.77-17.5 90.77-11.45 79.32-11.45Q78.02-11.45 77.31-10.66 76.61-9.86 76.61-8.69L76.61-8.69Q76.61-7.45 77.42-6.75 78.24-6.05 79.37-6.05L79.37-6.05 90.77-6.05Q92.06-6.05 92.77-6.84 93.48-7.62 93.48-8.79L93.48-8.79 93.48-17.65Q93.48-18.9 92.71-19.63 91.94-20.36 90.77-20.36L90.77-20.36 76.83-20.36 76.83-26.39 90.77-26.39Q92.08-26.39 93.61-25.93 95.14-25.46 96.44-24.43 97.75-23.39 98.63-21.72 99.51-20.04 99.51-17.65L99.51-17.65ZM130.44-8.91L130.44-8.91Q130.44-7.28 130.02-5.97 129.61-4.66 128.92-3.67 128.24-2.69 127.34-1.99 126.43-1.29 125.44-0.85 124.46-0.42 123.44-0.21 122.43 0 121.53 0L121.53 0 104.34 0 104.34-6.35 121.48-6.35Q122.77-6.35 123.43-7.01 124.09-7.67 124.09-8.91L124.09-8.91Q123.97-11.45 121.53-11.45L121.53-11.45 111.69-11.45Q109.59-11.45 108.12-12.18 106.66-12.92 105.74-14.01 104.83-15.11 104.42-16.38 104.02-17.65 104.02-18.75L104.02-18.75Q104.02-20.87 104.78-22.33 105.53-23.78 106.68-24.68 107.83-25.59 109.17-25.99 110.51-26.39 111.69-26.39L111.69-26.39 127.29-26.39 127.29-20.04 111.74-20.04Q111.25-20.04 110.97-19.93 110.69-19.82 110.55-19.64 110.42-19.46 110.39-19.25 110.37-19.04 110.37-18.85L110.37-18.85Q110.39-18.46 110.51-18.24 110.64-18.02 110.82-17.92 111-17.82 111.24-17.81 111.47-17.8 111.69-17.8L111.69-17.8 121.53-17.8Q123.97-17.8 125.68-16.92 127.39-16.04 128.43-14.71 129.48-13.38 129.96-11.82 130.44-10.25 130.44-8.91ZM163.27-17.65L163.27-17.65Q163.27-16.33 162.81-14.81 162.34-13.28 161.31-11.98 160.27-10.67 158.6-9.79 156.92-8.91 154.53-8.91L154.53-8.91 143.08-8.91 143.08-14.94 154.53-14.94Q155.82-14.94 156.53-15.73 157.24-16.53 157.24-17.7L157.24-17.7Q157.24-18.95 156.45-19.65 155.65-20.36 154.53-20.36L154.53-20.36 143.08-20.36Q141.79-20.36 141.08-19.57 140.37-18.77 140.37-17.6L140.37-17.6 140.37-8.74Q140.37-7.47 141.16-6.76 141.96-6.05 143.13-6.05L143.13-6.05 154.53-6.05 154.53 0 143.08 0Q141.76 0 140.24-0.46 138.71-0.93 137.4-1.97 136.1-3 135.22-4.68 134.34-6.35 134.34-8.74L134.34-8.74 134.34-17.65Q134.34-18.97 134.8-20.5 135.27-22.02 136.31-23.33 137.34-24.63 139.02-25.51 140.69-26.39 143.08-26.39L143.08-26.39 154.53-26.39Q155.85-26.39 157.38-25.93 158.9-25.46 160.21-24.43 161.51-23.39 162.39-21.72 163.27-20.04 163.27-17.65ZM204.99-20.85L204.99-14.16Q204.99-11.72 204.35-9.56 203.7-7.4 202.51-5.64 201.33-3.88 199.66-2.56 197.99-1.25 195.93-0.49L195.93-0.49 203.36 5.4 194.15 5.4 188.05 0.49 181.8 0.49Q178.65 0.49 175.96-0.6 173.28-1.68 171.33-3.64 169.37-5.59 168.26-8.28 167.15-10.96 167.15-14.16L167.15-14.16 167.15-20.85Q167.15-24.02 168.26-26.72 169.37-29.42 171.33-31.36 173.28-33.3 175.96-34.4 178.65-35.5 181.8-35.5L181.8-35.5 190.39-35.5Q193.54-35.5 196.22-34.4 198.89-33.3 200.84-31.36 202.8-29.42 203.89-26.72 204.99-24.02 204.99-20.85L204.99-20.85ZM198.64-14.16L198.64-20.85Q198.64-22.73 198.05-24.26 197.45-25.78 196.36-26.87 195.28-27.95 193.75-28.55 192.22-29.15 190.39-29.15L190.39-29.15 181.8-29.15Q179.94-29.15 178.42-28.55 176.89-27.95 175.79-26.87 174.69-25.78 174.1-24.26 173.5-22.73 173.5-20.85L173.5-20.85 173.5-14.16Q173.5-12.28 174.1-10.75 174.69-9.23 175.79-8.14 176.89-7.06 178.42-6.46 179.94-5.86 181.8-5.86L181.8-5.86 190.34-5.86Q192.2-5.86 193.73-6.46 195.25-7.06 196.35-8.14 197.45-9.23 198.05-10.75 198.64-12.28 198.64-14.16L198.64-14.16ZM239.41-26.39L239.41-3.2Q239.41-2.51 239.17-1.93 238.93-1.34 238.5-0.92 238.07-0.49 237.5-0.24 236.92 0 236.26 0L236.26 0 221.91 0Q220.74 0 219.41-0.27 218.08-0.54 216.78-1.14 215.49-1.73 214.28-2.65 213.07-3.56 212.17-4.87 211.26-6.18 210.71-7.89 210.17-9.59 210.17-11.74L210.17-11.74 210.17-26.39 216.51-26.39 216.51-11.74Q216.51-10.5 216.94-9.51 217.37-8.52 218.1-7.81 218.83-7.1 219.82-6.73 220.81-6.35 221.96-6.35L221.96-6.35 233.07-6.35 233.07-26.39 239.41-26.39ZM273.76-17.65L273.76-17.65Q273.76-16.33 273.3-14.81 272.83-13.28 271.8-11.98 270.76-10.67 269.09-9.79 267.41-8.91 265.02-8.91L265.02-8.91 253.57-8.91 253.57-14.94 265.02-14.94Q266.32-14.94 267.02-15.73 267.73-16.53 267.73-17.7L267.73-17.7Q267.73-18.95 266.94-19.65 266.14-20.36 265.02-20.36L265.02-20.36 253.57-20.36Q252.28-20.36 251.57-19.57 250.86-18.77 250.86-17.6L250.86-17.6 250.86-8.74Q250.86-7.47 251.65-6.76 252.45-6.05 253.62-6.05L253.62-6.05 265.02-6.05 265.02 0 253.57 0Q252.25 0 250.73-0.46 249.2-0.93 247.9-1.97 246.59-3 245.71-4.68 244.83-6.35 244.83-8.74L244.83-8.74 244.83-17.65Q244.83-18.97 245.3-20.5 245.76-22.02 246.8-23.33 247.83-24.63 249.51-25.51 251.18-26.39 253.57-26.39L253.57-26.39 265.02-26.39Q266.34-26.39 267.87-25.93 269.39-25.46 270.7-24.43 272-23.39 272.88-21.72 273.76-20.04 273.76-17.65ZM303.54-8.91L303.54-8.91Q303.54-7.28 303.13-5.97 302.71-4.66 302.03-3.67 301.35-2.69 300.44-1.99 299.54-1.29 298.55-0.85 297.56-0.42 296.55-0.21 295.54 0 294.63 0L294.63 0 277.45 0 277.45-6.35 294.58-6.35Q295.88-6.35 296.54-7.01 297.2-7.67 297.2-8.91L297.2-8.91Q297.07-11.45 294.63-11.45L294.63-11.45 284.79-11.45Q282.69-11.45 281.23-12.18 279.77-12.92 278.85-14.01 277.93-15.11 277.53-16.38 277.13-17.65 277.13-18.75L277.13-18.75Q277.13-20.87 277.89-22.33 278.64-23.78 279.79-24.68 280.94-25.59 282.28-25.99 283.62-26.39 284.79-26.39L284.79-26.39 300.4-26.39 300.4-20.04 284.84-20.04Q284.36-20.04 284.07-19.93 283.79-19.82 283.66-19.64 283.52-19.46 283.5-19.25 283.48-19.04 283.48-18.85L283.48-18.85Q283.5-18.46 283.62-18.24 283.74-18.02 283.93-17.92 284.11-17.82 284.34-17.81 284.57-17.8 284.79-17.8L284.79-17.8 294.63-17.8Q297.07-17.8 298.78-16.92 300.49-16.04 301.54-14.71 302.59-13.38 303.07-11.82 303.54-10.25 303.54-8.91ZM331.54-26.39L331.54-20.04 320.46-20.04 320.46 0 314.04 0 314.04-20.04 305.79-20.04 305.79-26.39 314.04-26.39 314.04-35.01 320.46-35.01 320.46-26.39 331.54-26.39Z" opacity="1" transform="matrix(1,0,0,1,0,0)" fill="#9e9fac" class="undefined-text-0" data-fill-palette-color="primary" id="text-0"></path></svg></g></svg></g></svg></g></svg></g></svg></g></svg></g></svg></g><defs></defs></svg><rect width="395.52" height="247.2" fill="none" stroke="none" visibility="hidden"></rect></g></svg></g></svg>